<?xml version="1.0" standalone="no"?>
<!DOCTYPE svg PUBLIC "-//W3C//DTD SVG 20010904//EN"
 "http://www.w3.org/TR/2001/REC-SVG-20010904/DTD/svg10.dtd">
<svg version="1.0" xmlns="http://www.w3.org/2000/svg"
 width="180.000000pt" height="180.000000pt" viewBox="0 0 180.000000 180.000000"
 preserveAspectRatio="xMidYMid meet">
<metadata>
Created by potrace 1.11, written by Peter Selinger 2001-2013
</metadata>
<g transform="translate(0.000000,180.000000) scale(0.100000,-0.100000)"
fill="#000000" stroke="none">
<path d="M345 1572 c-85 -41 -138 -127 -175 -285 -12 -48 -22 -115 -23 -147
-2 -53 -4 -60 -23 -60 -37 0 -58 -24 -51 -59 5 -23 3 -33 -8 -38 -24 -8 -65
-86 -65 -121 0 -40 19 -82 38 -82 10 0 12 -5 7 -17 -12 -28 -18 -118 -11 -155
12 -67 103 -194 154 -215 l35 -14 -30 -19 c-61 -37 -99 -111 -91 -178 4 -29
-1 -46 -22 -77 -15 -22 -35 -55 -44 -72 l-17 -33 252 0 251 0 -59 44 c-87 66
-102 85 -96 124 l5 33 57 -54 c67 -64 151 -113 206 -121 39 -6 39 -6 -11 13
-113 42 -249 158 -252 215 -2 25 1 28 21 21 188 -57 338 -77 515 -67 128 7
132 6 132 -13 -1 -14 -24 -35 -74 -67 -41 -26 -88 -66 -106 -88 l-32 -40 188
0 c103 0 184 3 180 8 -4 4 -26 12 -49 19 -38 11 -32 12 71 10 95 -2 116 -5
126 -19 7 -10 23 -18 35 -18 44 0 18 94 -42 147 -49 43 -96 56 -183 51 l-74
-5 0 52 0 52 215 -61 215 -61 0 -87 c0 -81 2 -88 20 -88 18 0 20 7 20 88 l0
88 99 32 c55 18 102 32 105 32 3 0 6 -54 6 -120 0 -113 1 -120 20 -120 19 0
20 7 20 138 0 120 -2 141 -18 154 -21 20 -110 57 -222 93 -47 15 -88 30 -93
32 -4 3 6 22 23 43 89 113 98 250 26 393 l-35 69 21 28 c29 40 18 89 -28 129
-19 17 -39 31 -45 31 -5 0 -7 11 -3 24 7 28 -19 48 -57 43 -19 -2 -23 6 -39
71 -26 110 -90 231 -151 286 -29 26 -64 48 -84 52 -61 11 -140 -29 -170 -85
l-14 -28 -58 19 c-67 23 -146 20 -187 -7 -25 -17 -26 -16 -67 19 -90 77 -183
101 -254 68z m797 -59 c66 -45 148 -193 173 -310 8 -38 -7 -44 -22 -10 -6 12
-30 44 -53 70 -31 35 -45 61 -51 95 -6 33 -18 55 -39 74 -27 25 -28 28 -12 37
16 10 16 10 -1 11 -24 0 -64 -41 -73 -74 -5 -22 -10 -25 -33 -20 -14 4 -41 20
-58 37 l-33 31 23 29 c31 41 86 69 117 62 14 -4 42 -18 62 -32z m-671 16 c19
-7 65 -34 103 -61 38 -27 75 -52 82 -55 16 -6 19 13 4 22 -5 3 -10 13 -10 21
0 21 108 18 176 -6 117 -41 163 -104 164 -223 0 -68 -44 -232 -60 -222 -4 2
-10 25 -13 50 -4 25 -16 64 -28 87 -22 44 -70 108 -80 108 -3 0 11 -34 32 -74
21 -41 45 -109 54 -150 9 -42 20 -76 24 -76 4 0 21 15 39 33 78 81 109 249 67
360 -7 15 -4 16 21 6 112 -42 177 -104 264 -248 193 -319 224 -406 186 -517
-16 -47 -55 -114 -67 -114 -3 0 -14 30 -23 68 -41 158 -45 161 -204 163 -85 1
-127 -3 -138 -12 -12 -10 -20 -7 -42 14 -25 24 -62 37 -62 21 0 -3 20 -28 44
-55 50 -55 71 -118 61 -177 -4 -27 -2 -42 6 -48 18 -11 39 24 39 64 l0 35 52
-6 c65 -8 84 -27 92 -93 6 -50 6 -52 -21 -58 -89 -19 -178 -48 -185 -59 -4 -6
-8 -24 -8 -39 0 -24 -5 -28 -57 -39 -65 -13 -244 -7 -333 12 -109 22 -266 71
-314 97 -63 34 -100 72 -131 131 -19 37 -25 42 -30 28 -4 -9 -5 -26 -2 -37 8
-31 -1 -24 -22 18 -10 20 -22 63 -26 95 -8 63 -20 65 -36 5 -6 -24 -8 -14 -5
42 5 88 28 155 92 265 66 113 226 270 367 363 89 58 103 70 75 66 -33 -5 -39
-2 -145 86 -7 6 -27 10 -46 10 -36 0 -82 -40 -110 -95 -23 -47 -38 -135 -31
-182 6 -40 3 -46 -38 -95 -25 -29 -59 -73 -76 -98 -45 -64 -74 -96 -99 -109
-45 -23 -38 18 16 104 24 38 28 51 19 62 -9 11 -8 17 3 24 20 13 35 11 49 -6
19 -23 30 -8 30 43 0 63 25 203 50 278 51 151 126 208 231 173z m18 -153 c18
-14 39 -34 47 -44 12 -17 12 -21 -2 -26 -27 -10 -43 -7 -64 14 -11 11 -31 20
-44 20 -33 0 -42 17 -20 41 23 25 43 24 83 -5z m911 -233 c0 -9 -32 -43 -40
-43 -11 0 -21 30 -14 41 6 10 54 12 54 2z m20 -74 c64 -36 86 -99 40 -114 -25
-8 -70 22 -70 46 0 11 -7 35 -14 54 -18 41 -9 44 44 14z m-81 -425 c20 -25 29
-59 55 -209 8 -44 16 -86 17 -94 5 -17 -44 -35 -75 -27 -25 6 -39 43 -52 131
-3 28 -11 58 -16 68 -16 32 -70 57 -120 57 -46 0 -47 1 -54 36 -3 19 -3 39 2
44 8 8 58 13 176 18 39 2 50 -2 67 -24z m276 -320 l130 -48 -107 -35 -107 -35
-190 55 c-105 29 -191 57 -191 60 0 3 19 11 43 18 23 7 50 15 60 17 13 4 17
-1 17 -20 0 -32 42 -56 98 -56 50 0 76 27 70 71 -4 29 -3 31 21 26 14 -3 84
-27 156 -53z m-1320 10 c64 -42 52 -233 -18 -279 -23 -15 -27 -14 -60 1 -61
29 -90 121 -62 204 17 50 37 70 72 70 39 0 57 -26 64 -87 l6 -58 2 51 c1 38
-4 58 -19 77 -32 40 -26 48 15 21z m983 -214 c17 -11 32 -21 32 -22 0 -2 -35
-3 -77 -4 -52 0 -90 -6 -115 -18 -29 -14 -41 -15 -58 -6 -12 6 -34 9 -48 5
-44 -11 -12 13 54 40 76 31 165 34 212 5z"/>
<path d="M1172 1113 c-7 -2 -17 -14 -23 -26 -9 -18 -9 -20 2 -9 20 19 57 14
69 -8 28 -53 -8 -118 -50 -92 -20 12 -20 12 -6 -15 25 -49 63 -77 102 -76 49
1 74 27 74 76 0 101 -90 182 -168 150z"/>
<path d="M688 1074 c-34 -18 -35 -23 -5 -17 29 6 57 -20 57 -51 0 -32 -43 -76
-74 -76 -14 0 -31 9 -39 20 -14 21 -14 21 -21 -2 -27 -101 30 -181 116 -163
79 18 128 86 128 181 0 50 -3 59 -34 90 -38 38 -81 44 -128 18z"/>
<path d="M965 921 c-22 -10 -47 -26 -55 -36 -13 -16 -11 -20 19 -46 45 -37
144 -89 170 -89 27 0 81 82 81 122 0 62 -125 90 -215 49z m156 -41 c21 -12 26
-30 7 -30 -7 0 -31 9 -53 19 l-40 19 33 1 c18 1 42 -4 53 -9z"/>
<path d="M281 164 c0 -11 3 -14 6 -6 3 7 2 16 -1 19 -3 4 -6 -2 -5 -13z"/>
<path d="M244 88 l-19 -23 23 19 c21 18 27 26 19 26 -2 0 -12 -10 -23 -22z"/>
<path d="M400 233 c0 -15 123 -80 200 -107 63 -22 89 -26 179 -25 l106 2 -112
7 c-130 9 -191 27 -288 83 -38 22 -73 42 -77 44 -5 2 -8 0 -8 -4z"/>
<path d="M550 126 c0 -8 131 -78 137 -73 2 3 -24 21 -60 41 -61 34 -77 41 -77
32z"/>
</g>
</svg>
